<?xml version="1.0" encoding="utf-8"?>
<!-- Generator: Adobe Illustrator 27.5.0, SVG Export Plug-In . SVG Version: 6.00 Build 0)  -->
<svg version="1.1" id="Layer_1" xmlns="http://www.w3.org/2000/svg" xmlns:xlink="http://www.w3.org/1999/xlink" x="0px" y="0px"
	 viewBox="0 0 3000 2000" style="enable-background:new 0 0 3000 2000;" xml:space="preserve">
<rect style="fill:#FFFFFF;" width="3000" height="2000"/>
<g>
	<g>
		<g>
			<path style="fill:#DB9C7C;" d="M1741.555,844.227c0,0,22.644-9.558,26.148-10.909c3.503-1.352,13.726,0.972,25.227,4.664
				c11.507,3.69,25.395,13.828,25.963,15.832c0.565,2.005,2.07,3.769,0.318,8.823c-1.752,5.051-6.009,8.361-6.009,8.361
				s0.771,7.242-4.784,10.922c0,0,0.412,6.848-6.581,9.999c0,0,0.225,6.694-5.049,8.553c0,0-10.25-2.314-14.29-2.076
				c-4.039,0.241-24.148-8.03-43.351-17.143C1739.147,881.25,1716.678,874.025,1741.555,844.227z"/>
		</g>
		<g>
			<path style="fill:#272A45;" d="M1637.437,739.884c0,0-36.494-71.982,5.82-98.209c0,0,15.307,4.674,28.877,19.885
				c13.58,15.204,24.5,40.155,27.964,48.181c3.471,8.017,24.924,57.116,26.509,59.805c5.566,9.443,7.931,20.124,18.777,34.43
				c20.117,26.532,29.55,33.041,29.55,33.041l-34.07,48.819c0,0-23.247-15.357-54.252-44.298
				C1686.611,841.537,1642.652,755.497,1637.437,739.884z"/>
		</g>
		<g>
			<path style="fill:#EEA886;" d="M1768.654,833.487c0,0,15.241,14.476,20.095,26.033c1.097,2.615,1.684,5.348-0.329,7.353
				c-2.017,2.004-7.475,1.633-14.399-4.299c-6.924-5.935-18.586-10.436-18.586-10.436S1750.107,843.956,1768.654,833.487z"/>
		</g>
		<g>
			<rect x="1469.367" y="479.435" style="fill:#292929;" width="2.593" height="64.443"/>
		</g>
		<path style="fill:#292929;" d="M1470.705,541.84v-0.013c-0.014,0-0.027,0.006-0.027,0.006c-0.029,0-0.042-0.006-0.042-0.006
			l-0.015,0.013c-6.109,0.288-5.404,31.727-5.404,31.727h5.404h0.083h5.402C1476.108,573.567,1476.815,542.128,1470.705,541.84z"/>
		<g>
			<path style="fill:#202338;" d="M1704.688,1677.734c0,0,21.571,22.652,43.47,27.398c21.897,4.745,37.219,10.799,37.382,23.796
				c0.166,13-63.022,21.565-88.084,8.461c-37.4-19.557-41.204-13.661-45.349-23.438c-4.147-9.774,4.981-35.916,4.709-39.025
				C1656.482,1671.084,1704.688,1677.734,1704.688,1677.734z"/>
		</g>
		<g>
			<path style="fill:#2F6B8C;" d="M1702.262,1666.897c0,0,2.849,10.612,2.426,10.837c-0.424,0.225-49.349,5.708-47.872-2.809
				c1.202-6.906,2.914-14.413,2.914-14.413L1702.262,1666.897z"/>
		</g>
		<g>
			<path style="fill:#202338;" d="M1461.013,1683.641c0,0,15.868,22.065,37.093,27.154c20.929,5.018,34.491,14.568,35.518,27.2
				c1.024,12.634-49.343,29.177-84.733,6.987c-23.254-14.581-31.926-13.752-36.61-23.017c-4.685-9.264,2.454-35.229,1.984-38.237
				C1413.684,1680.011,1461.013,1683.641,1461.013,1683.641z"/>
		</g>
		<g>
			<path style="fill:#2F6B8C;" d="M1460.363,1672.732c0,0,1.046,10.666,0.649,10.908c-0.396,0.243-47.026,8.494-46.749,0.088
				c0.221-6.677,2.957-14.983,2.957-14.983L1460.363,1672.732z"/>
		</g>
		<g>
			<path style="fill:#4F5E8F;" d="M1652.914,1029.589c0,0,22.657,164.579,31.909,220.216
				c10.822,65.054,14.489,118.801,17.507,152.471c3.794,42.351,3.775,259.073,6.433,271.456c2.656,12.382-57.738,6.218-57.738,6.218
				s-39.166-282.806-50.47-327.908c-10.525-41.993-41.17-223.387-50.774-211.919c-9.604,11.467-39.007,216.95-46.119,250.071
				c-7.112,33.121-36.448,294.344-36.448,294.344s-48.505,13.34-61.544,2.959c0,0,4.235-235.945,8.767-298.041
				c1.728-23.664-14.968-283.304,25.049-388.008C1460.633,946.113,1652.914,1029.589,1652.914,1029.589z"/>
		</g>
		<path style="fill:#272A45;" d="M1586.437,634.877c0,0,59.955,12.397,67.071,18.698c7.72,6.707,21.34,72.372,22.154,90.663
			c0.814,18.291-7.228,94.7-14.952,123.155c-7.72,28.452-6.302,168.597-1.426,208.026c0,0-120.715,34.287-239.407,18.841
			c0,0,19.896-147.443,15.147-186.432c-6.088-49.949-20.733-165.03-20.733-165.03s10.509-80.164,21.076-89.106
			c10.569-8.942,83.389-18.814,83.389-18.814H1586.437z"/>
		<path style="fill:#EEA886;" d="M1561.652,449.491c0,0,72.118-26.687,67.612,69.154c-4.51,95.842-21.411,105.581-68.853,92.195
			c-47.44-13.385-51.417-73.874-57.595-102.971C1496.638,478.773,1538.067,453.675,1561.652,449.491z"/>
		<path style="fill:#EEA886;" d="M1595.871,647.854c0,0-14.844,9.814-71.117-14.976c0,0,1.59-38.581-9.449-74.615
			c-11.039-36.036,75.517,48.047,75.517,48.047c-0.908,0.64-1.082,4.242-0.563,9.266c0.438,4.258,1.372,9.535,2.776,14.891
			C1596.196,642.513,1595.871,637.337,1595.871,647.854z"/>
		<path style="fill:#525252;" d="M1512.84,555.403c0,0-0.204-25.601,10.442-27.957c10.646-2.357,14.257,8.598,14.257,8.598
			l10.817-1.295c0,0-8.034-21.265,2.117-27.213c10.15-5.947,70.867-0.722,78.49-9.456c7.619-8.735-3.432-60.613-19.998-65.706
			c-16.566-5.091-61.82-15.419-90.558,10.172c0,0-24.994,0.476-25.997,20.832C1491.409,483.735,1504.179,541.522,1512.84,555.403z"
			/>
		<path style="fill:#A77860;" d="M1593.035,630.465c-55.899-9.396-64.255-41.188-64.38-41.684
			c21.732,28.023,61.604,26.793,61.604,26.793C1590.697,619.833,1591.631,625.11,1593.035,630.465z"/>
		<path style="fill:#272A45;" d="M1654.271,652.977c0,0,34.069,45.604,21.448,163.526
			c-22.806,213.086,36.915,555.146,36.915,555.146l-61.61,10.313c0,0-58.876-428.305-43.883-587.003
			c6.834-72.319,27.11-96.381-4.881-156.631C1602.261,638.329,1633.408,639.371,1654.271,652.977z"/>
		<path style="fill:#272A45;" d="M1502.195,637.337c0,0,97.519,98.506,105.156,173.181c7.638,74.677,43.673,571.445,43.673,571.445
			l-255.761-4.551c0,0,23.251-279.979,28.458-313.375c5.207-33.396,28.485-154.335-9.429-301.119
			c-12.364-47.87-11.099-106.529,17.743-113.148C1460.875,643.149,1502.195,637.337,1502.195,637.337z"/>
		<polygon style="fill:#272A45;" points="1631.422,479.086 1695.381,453.21 1577.3,401.173 1426.326,479.086 1497.108,505.25 		"/>
		<path style="fill:#C4B5AE;" d="M1502.195,637.337c0,0,57.85,38.96,100.065,49.069c1.756,0.42,0-48.078,0-48.078
			S1566.786,624.131,1502.195,637.337z"/>
		<path style="fill:#EEA886;" d="M1542.536,631.319c0,0,22.936,10.991,40.763,12.634c0,0,9.227-3.444,9.736-13.488L1542.536,631.319
			z"/>
		<path style="fill:#F08D29;" d="M1602.261,686.406v-48.078c0,0,34.923-0.992,44.504,4.694L1602.261,686.406z"/>
		<path style="fill:#EAD8CF;" d="M1593.035,630.465c0,0-3.101,10.169-9.736,13.488l20.76,22.166l-1.798-27.79L1593.035,630.465z"/>
		<path style="fill:#51578F;" d="M1631.193,491.381c0,0-61.92-7.094-131.221,24.712l-5.977-21.37c0,0,78.11-29.35,138.574-22.071
			L1631.193,491.381z"/>
		<polygon style="fill:#BF2E2E;" points="1801.902,793.72 1784.717,1010.146 1645.806,999.115 1657.568,782.257 		"/>
		<path style="fill:#EEA886;" d="M1612.847,916.093c0,0,5.632,1.614,9.964-0.356c7.478-3.402,12.397-15.365,23.537-11.443
			c11.145,3.921,8.648,42.791,4.34,49.133c-4.307,6.339-20.783,5.717-43.033-5.337
			C1585.403,937.035,1612.847,916.093,1612.847,916.093z"/>
		<path style="fill:#EEA886;" d="M1642.406,903.518c0,0,17.508-1.536,37.201-0.837c17.279,0.611,38.642,3.782,38.544,8.133
			c-0.152,6.605-17.37,2.002-34.541,2.555c-15.806,0.509-12.6,3.086-12.6,3.086s-0.872-0.784,16.469,2.046
			c18.647,3.042,38.548,7.091,38.533,10.656c-0.017,4.418-0.395,4.968-7.34,4.98c3.995,0.86,4.332,2.087,4.137,3.804
			c-1.014,8.886-29.097,8.728-40.249,8.661c8.568,0.105,14.844,1.108,10.711,6.144c-4.731,5.762-44.43,3.726-58.712,4.378
			C1618.974,957.834,1642.406,903.518,1642.406,903.518z"/>
		<path style="fill:#272A45;" d="M1435.171,649.792c12.571-0.773,49.868,19.925,44.905,50.849
			c-4.129,25.74-1.467,46.052-2.334,56.368c-0.868,10.315-0.983,79.337,5.134,85.771c7.75,8.149,51.362,29.343,55.337,31.902
			c13.705,8.824,81.271,37.215,81.271,37.215l-13.096,52.615c0,0-148.778-60.102-164.203-71.639
			c-10.164-7.603-25.926-18.526-30.052-51.143c-4.193-33.153-14.538-93.312-14.059-99.956
			C1398.555,735.13,1379.351,653.219,1435.171,649.792z"/>
		<g>
			<path style="fill:#EEA886;" d="M1815.91,852.73c0,0-28.949-8.428-31.363-4.083c-3.341,6.018,0.066,7.437,0.066,7.437
				l-13.711,1.927c0,0-8.354,6.403,1.061,13.632c0,0-8.426,5.171,1.499,11.071c0,0-4.036,5.89,0.075,9.434
				c4.112,3.542,23.252,8.321,23.252,8.321s4.492-0.807,5.049-8.553c0,0,6.878-2.623,6.581-9.999c0,0,5.179-2.959,4.784-10.922
				c0,0,11.032-7.503,5.69-17.183C1818.892,853.813,1817.151,853.085,1815.91,852.73z"/>
		</g>
		<path style="fill:#F08D29;" d="M1518.224,634.51l84.037,51.896l-173.605-35.804C1428.656,650.602,1463.07,641.247,1518.224,634.51
			z"/>
		<path style="fill:#EAD8CF;" d="M1524.773,622.211c0,0,29.417,17.745,58.525,21.742l-10.718,29.378l-54.357-38.821
			L1524.773,622.211z"/>
		<path style="fill:#525252;" d="M1617.056,502.12c0,0-37.857,25.57-69.992,32.934c-32.135,7.366-34.214,19.391-34.214,19.391
			s-24.066-46.083,28.592-51.127C1594.101,498.276,1617.056,502.12,1617.056,502.12z"/>
		<path style="fill:#EEA886;" d="M1536.898,523.084c-3.185-8.444-21.174-7.38-19.331,6.008
			c1.842,13.389,16.707,34.009,22.678,30.143C1546.215,555.368,1541.291,534.732,1536.898,523.084z"/>
		<path style="fill:#525252;" d="M1617.056,502.12l12.357,12.328c0,0,2.354-18.484,1.781-23.067
			C1631.193,491.381,1621.58,495.012,1617.056,502.12z"/>
	</g>
	<g>
		<path style="fill:#EEA886;" d="M815.697,810.417c0,0-19.66,8.948-24.193,1.558c-4.533-7.39-14.203-15.075-17.369-17.34
			c-4.235-3.027-14.136-17.2-17.598-11.854c-3.458,5.351,15.285,24.134,18.5,28.855c3.211,4.72-21.025,1.919-25.673,5.026
			c-4.647,3.107-4.875,45.042,11.879,44.964c16.755-0.073,34.065-11.699,37.044-11.102c2.975,0.597,22.219-3.786,22.219-3.786
			L815.697,810.417z"/>
		<path style="fill:#EEA886;" d="M753.227,815.682c0,0-51.11,3.789-54.178,7.026c-3.064,3.237-2.567,6.127,2.235,5.98
			c4.801-0.144,49.553-2.161,49.553-2.161s-59.274,15.127-62.371,17.178c-1.812,1.2-1.168,6.837,1.421,7.007
			c2.588,0.169,62.331-11.275,62.331-11.275s-55.319,14.229-57.378,16.776c-1.801,2.228,0.026,7.31,4.212,6.551
			c4.187-0.758,56.388-10.899,56.388-10.899s-39.515,13.032-39.986,16.316c-0.291,2.011,0.052,6.897,10.13,3.196
			c10.082-3.697,34.86-9.777,34.86-9.777L753.227,815.682z"/>
		<g>
			<path style="fill:#C4C6D1;" d="M1288.999,1673.205c0,0,13.628,9.725,21.177,16.537c7.549,6.813,17.819,14.225,24.108,31.608
				c6.367,17.595-3.663,30.235-20.702,31.275c-17.035,1.041-43.142-11.82-45.687-27.419c-2.518-15.439-22.532-13.625-25.139-24.612
				c-2.611-10.988,0.876-24.506,0.876-24.506L1288.999,1673.205z"/>
		</g>
		<g>
			<path style="fill:#EEA886;" d="M1286.731,1660.431l2.268,12.774c0,0-7.014,12.983-45.366,2.883l1.978-12.586L1286.731,1660.431z"
				/>
		</g>
		<path style="fill:#C4C6D1;" d="M1243.633,1676.088c0,0,8.639,1.134,14.792,2.103c6.153,0.965,18.342-6.898,30.574-4.985
			l-3.763,15.531C1285.236,1688.736,1244.491,1681.106,1243.633,1676.088z"/>
		<g>
			<path style="fill:#C4C6D1;" d="M1044.269,1673.205c0,0-13.628,9.725-21.177,16.537c-7.549,6.813-17.819,14.225-24.108,31.608
				c-6.363,17.595,3.664,30.235,20.702,31.275c17.035,1.041,43.146-11.82,45.686-27.419c2.519-15.439,22.532-13.625,25.139-24.612
				c2.611-10.988-0.876-24.506-0.876-24.506L1044.269,1673.205z"/>
		</g>
		<g>
			<path style="fill:#EEA886;" d="M1046.537,1660.431l-2.268,12.774c0,0,7.015,12.983,45.366,2.883l-1.978-12.586L1046.537,1660.431
				z"/>
		</g>
		<g>
			<path style="fill:#292C47;" d="M1030.508,965.865c0,0,132.18-26.063,200.708-1.439c2.865,1.027,5.616,2.143,8.241,3.354
				c0,0,0.162,1.167,0.464,3.358c0.685,5.063,2.121,15.624,4.029,29.996c0.324,2.416,0.655,4.941,1.005,7.567
				c9.754,73.845,24.333,181.177,27.12,233.55c3.661,68.713,7.472,78.496,7.479,91.418c0.011,34.823,12.244,328.101,12.244,328.101
				s-20.746,11.131-52.745,0c0,0-37.755-290.918-44.306-312.441c-6.547-21.518-52.933-217.68-61.137-218.615
				c-8.204-0.935-30.95,207.3-32.677,235.609c-1.73,28.299-0.092,290.925-9.453,295.601c-9.356,4.68-47.376,5.166-50.183-4.19
				c0,0-11.109-266.972-11.109-295.042c0-28.074-9.062-246.781-8.267-256.152C1021.921,1106.541,1019.344,1037.873,1030.508,965.865
				z"/>
		</g>
		<g>
			<path style="fill:#FA6F41;" d="M1092.146,588.469c0,0-112.233,23.828-121.59,55.021C961.2,674.679,944.567,726,924.17,807.055
				c-3.067,12.185-118.935-4.153-118.935-4.153s-9.644,49.413-9.901,51c-0.7,4.312,156.513,12.288,167.858,9.408
				c16.372-4.154,43.959-113.772,43.959-113.772s14.862,165.593,14.862,191.17c0,25.578-1.69,77.37-1.69,77.37
				s41.588,15.93,122.345,11.721c0,0,128.527-4.415,106.592-43.591c-16.588-29.621-6.422-228.896-3.925-230.144
				c2.497-1.249,47.303,54.873,42.936,65.678c-4.367,10.804-120.331,49.556-120.331,49.556s-3.388,12.491,14.626,40.786
				c0,0,173.212-50.617,173.834-61.222c0.626-10.601-72.044-216.553-95.777-227.331c-34.164-15.521-123.512-39.923-123.512-39.923
				L1092.146,588.469z"/>
		</g>
		<path style="fill:#C4C6D1;" d="M1089.635,1676.088c0,0-8.639,1.134-14.792,2.103c-6.153,0.965-18.338-6.898-30.574-4.985
			l3.764,15.531C1048.033,1688.736,1088.777,1681.106,1089.635,1676.088z"/>
		
			<rect x="1128.447" y="769.747" transform="matrix(-0.9603 0.2788 -0.2788 -0.9603 2590.0718 1377.7703)" style="fill:#D9C7C1;" width="137.224" height="206.648"/>
		
			<rect x="1141.063" y="766.087" transform="matrix(-0.9603 0.2788 -0.2788 -0.9603 2613.7813 1367.0748)" style="fill:#6DBD7D;" width="137.224" height="206.645"/>
		
			<rect x="1130.911" y="710.043" transform="matrix(-0.9603 0.2788 -0.2788 -0.9603 2610.0686 1295.7748)" style="fill:#EDDAD3;" width="163.957" height="246.902"/>
		
			<rect x="1145.987" y="705.668" transform="matrix(-0.9604 0.2788 -0.2788 -0.9604 2638.3916 1283.0261)" style="fill:#548AD1;" width="163.956" height="246.9"/>
		
			<rect x="1166.612" y="753.95" transform="matrix(-0.9603 0.2788 -0.2788 -0.9603 2589.906 1153.9642)" style="fill:#609EF0;" width="92.554" height="14.425"/>
		
			<rect x="1176.014" y="780.015" transform="matrix(-0.9603 0.2788 -0.2788 -0.9603 2615.6023 1202.4399)" style="fill:#609EF0;" width="92.554" height="14.423"/>
		<path style="fill:#E6A281;" d="M1131.952,865.56c0,0-12.52-0.343-16.353-0.899c-3.833-0.552-1.304,7.601,3.148,9.136
			C1123.196,875.336,1131.952,865.56,1131.952,865.56z"/>
		<path style="fill:#EEA886;" d="M1124.636,925.352c0,0,5.464,1.33,8.138,0.744c0,0,4.783-1.439,8.245-2.257
			c1.097-0.254,2.063-0.453,2.696-0.516c2.655-0.265,8.565-0.055,14.762-2.482c6.194-2.419,27.208-13.197,27.208-13.197
			l-6.009-19.535l-4.529-15.477c0,0-35.516-9.452-41.548-7.861c-0.589,0.158-1.164,0.338-1.694,0.549
			c-4.975,1.841-7.906,5.302-10.406,6.565c-0.917,0.471-9.711,5.755-10.167,8.786c-0.645,4.205,0.618,7.379,2.784,9.331
			c0,0-0.891,8.293,2.184,12.991c0,0-1.071,7.623,4.415,12.376C1120.714,915.37,1120.496,923.224,1124.636,925.352z"/>
		<path style="fill:#FA6F41;" d="M1167.94,870.078c0,0-0.298,26.17,15.848,45.719c0,0,125.976-43.403,141.125-49.361
			c15.149-5.958-55.05-192.497-55.05-192.497l-51.648,17.583l27.75,52.473c0,0,13.735,29.396,42.307,77.745
			C1288.271,821.74,1270.687,837.217,1167.94,870.078z"/>
		<path style="fill:#EED9CF;" d="M1174.292,594.232c0,0,1.256,49.928-50.171,48.731c-53.232-1.237-41.949-52.193-41.949-52.193
			S1122.463,573.228,1174.292,594.232z"/>
		<path style="fill:#EEA886;" d="M1093.969,549.437c0,0,4.625,25.345-3.329,42.652c0,0-8.098,40.339,33.199,42.148
			c41.297,1.808,40.849-43.514,40.849-43.514s-8.484-4.942-1.889-41.036C1169.394,513.593,1093.969,549.437,1093.969,549.437z"/>
		<g>
			<path style="fill:#EEA886;" d="M1119.075,402.866c0,0-52.841,8.524-44.795,93.192c8.046,84.664,54.682,77.727,57.797,77.638
				c3.119-0.084,46.82,1.547,50.227-101.827C1182.304,471.868,1183.792,395.431,1119.075,402.866z"/>
		</g>
		<g>
			<path style="fill:#EEA886;" d="M1073.462,472.141c0,0-5.789-6.33-7.91,0.077c-2.121,6.411,7.538,34.006,8.252,36.322
				c0,0,1.057,2.486,2.445,1.12C1077.638,508.29,1073.462,472.141,1073.462,472.141z"/>
		</g>
		<g>
			<path style="fill:#EEA886;" d="M1181.023,471.069c0,0,5.667-6.44,7.909-0.077c2.243,6.367-7.107,35.398-7.567,36.48
				c0,0-1.009,2.504-2.423,1.164C1177.528,507.296,1181.023,471.069,1181.023,471.069z"/>
		</g>
		<g>
			<path style="fill:#434343;" d="M1073.488,485.129l7.563,10.354c0,0-0.213-22.705,1.002-26.266
				c1.211-3.56-1.436-15.959-0.42-18.522c1.012-2.566,36.142,6.978,93.752,1.112c0,0-6.407,20.456-2.655,21.906
				c3.756,1.455,1.915,26.593,1.915,26.593l6.22-7.188c0,0,7.026-42.943,6.341-50.112c-0.91-9.541,2.327-54.101-78.735-46.453
				c-9.279,0.876-18.191,4.279-25.603,10.064c-8.329,6.503-16.894,16.647-16.11,30.589
				C1067.792,455.629,1073.488,485.129,1073.488,485.129z"/>
		</g>
		<path style="fill:#A77860;" d="M1156.153,562.479c0,0-21.8,25.452-56.41,0c0,0,9.703,19.31,30.052,19.763
			C1150.14,582.691,1156.153,562.479,1156.153,562.479z"/>
	</g>
	<g>
		<g>
			<g>
				<g>
					<path style="fill:#EEA886;" d="M2295.634,1018.143c0,0,5.168,8.472,5.815,15.384c0.514,5.47,5.116,13.648,7.107,18.165
						c1.995,4.521,8.405,24.967,8.632,30.285c0.094,2.173-4.757,15.888-4.072,20.272c0.689,4.384,3.198,13.073-0.74,13.651
						c-3.939,0.578-8.401-6.546-8.401-6.546s-0.111,3.947-3.442,5.488c-6.482,3-9.398-0.289-9.398-0.289s-2.419,5.18-5.421,5.776
						c-6.615,1.316-9.771-1.665-9.771-1.665s-2.997,2.823-7.57,2.735c-5.845-0.113-8.05-5.786-8.05-5.786s-7.33,1.956-9.479-1.499
						c-2.146-3.455-2.098-6.975-2.988-10.104c-0.891-3.131-0.218-31.402,9.386-51.756c9.604-20.356-2.445-40.208-2.445-40.208
						L2295.634,1018.143z"/>
				</g>
			</g>
		</g>
		<g>
			<g>
				<path style="fill:#DB9C7C;" d="M2305.016,1106.705c0,0,0.659-25.365-6.016-30.767c-6.676-5.399-7.438,3.757-7.438,3.757
					s0.907-9.047-6.389-10.271c-7.296-1.221-7.6,9.526-7.6,9.526s-1.195-6.975-8.859-5.543c-7.664,1.433-5.841,10.337-5.841,10.337
					s-7.316-8.732-12.065-0.346c-8.016,14.162-0.291,30.883-0.291,30.883s2.261,3.834,9.553,1.957c0,0,4.881,9.826,15.791,2.762
					c0,0,11.171,6.148,15.242-3.706C2291.104,1115.294,2303.418,1121.142,2305.016,1106.705z"/>
			</g>
		</g>
		<path style="fill:#323657;" d="M2381.68,652.753c0,0-43.421,144.722-58.095,198.105c-4.603,16.744-15.735,176.63-17.7,183.067
			c-1.966,6.44-57.046,15.256-57.046,15.256s6.675-200.017,7.296-210.927c0.625-10.908,60.771-234.272,78.266-242.241
			c13.103-5.969,20.021-1.032,36.536,11.229C2394.114,624.449,2381.68,652.753,2381.68,652.753z"/>
		<g>
			<path style="fill:#E55E5E;" d="M2906.547,384.707c-0.056-0.302-5.798-30.045-31.839-45.527
				c-19.765-11.751-46.175-12.417-78.484-1.979c-33.564,10.842-59.85,16.104-82.672,16.104c-49.257,0-82.367-24.511-137.696-70.313
				c-34.515-28.572-76.476-38.848-118.153-28.938c-45.417,10.799-83.361,44.19-104.11,91.612l-12.932-5.66
				c22.54-51.516,64.013-87.849,113.779-99.683c22.239-5.288,44.718-5.365,66.803-0.227c23.006,5.353,44.41,16.125,63.614,32.025
				c79.944,66.176,107.424,83.823,207.025,51.65c36.434-11.77,66.782-10.633,90.203,3.375
				c31.539,18.861,38.348,54.251,38.617,55.735L2906.547,384.707z"/>
		</g>
		<g>
			
				<rect x="2797.858" y="416.779" transform="matrix(0.8368 -0.5476 0.5476 0.8368 235.7673 1633.2578)" style="fill:#C73C3C;" width="118.79" height="8.822"/>
		</g>
		<path style="fill:#EFAA88;" d="M2919.961,422.373c0,0-0.946,5.622-2.561,7.878c0,0-3.254,3.879-5.398,6.776
			c-0.677,0.923-1.246,1.741-1.559,2.308c-1.307,2.368-3.473,7.958-8.213,12.762c-4.727,4.8-23.168,20.068-23.168,20.068
			l-15.795-13.406l-16.399-7.354c0,0,9.18-39.914,13.076-44.898c0.381-0.486,0.779-0.95,1.182-1.359
			c3.708-3.901,8.105-5.245,10.28-7.071c0.806-0.664,9.24-6.744,12.25-5.96c4.175,1.083,6.629,3.528,7.579,6.326
			c0,0,8.079,2.483,11.227,7.223c0,0,7.531,2.051,9.767,9.064C2912.229,414.73,2919.632,417.667,2919.961,422.373z"/>
		<g>
			<g>
				<path style="fill:#EAD8CF;" d="M2613.664,691.52l11.218-4.149c0,0-13.992-32.843-20.099-32.042
					c-7.035,0.92-15.816,3.241-15.816,3.241L2613.664,691.52z"/>
			</g>
		</g>
		<g>
			<g>
				<path style="fill:#DA9B5B;" d="M2616.225,697.187c-1.435-1.068-23.846-44.067-23.846-44.067l-47.891,6.508l25.879,50.929
					L2616.225,697.187z"/>
			</g>
		</g>
		<g>
			<g>
				<path style="fill:#424773;" d="M2346.445,1640.891c0,0-3.957,27.474-4.453,31.6c-0.492,4.127-44.028-2.43-44.028-2.43
					l-3.528-32.709C2294.436,1637.351,2341.004,1637.014,2346.445,1640.891z"/>
			</g>
		</g>
		<g>
			<g>
				<path style="fill:#292C47;" d="M2342.455,1668.998c0,0,13.795,16.554,27.138,23.771c13.342,7.217,34.305,10.074,42.196,17.542
					c5.694,5.393,20.74,28.604-34.669,28.137c-55.41-0.469-82.128,3.278-88.063-5.621c-5.939-8.9,8.589-65.69,8.589-65.69
					S2310.771,1671.858,2342.455,1668.998z"/>
			</g>
		</g>
		<g>
			<g>
				<path style="fill:#424773;" d="M2658.395,1640.891c0,0-3.96,27.474-4.453,31.6c-0.496,4.127-44.033-2.43-44.033-2.43
					l-3.523-32.709C2606.385,1637.351,2652.953,1637.014,2658.395,1640.891z"/>
			</g>
		</g>
		<g>
			<g>
				<path style="fill:#292C47;" d="M2654.404,1668.998c0,0,13.796,16.554,27.138,23.771s62.437,13.143,70.323,20.611
					c5.694,5.392,15.166,27.098-62.796,25.067c-55.394-1.442-82.128,3.278-88.066-5.621c-5.935-8.9,8.593-65.69,8.593-65.69
					S2621.957,1672.18,2654.404,1668.998z"/>
			</g>
		</g>
		<g>
			<g>
				<path style="fill:#292C47;" d="M2382.497,934.935c0,0-40.907,64.994-37.854,123.746c3.053,58.75-14.832,122.894-20.98,184.267
					c-6.851,68.42-34.887,230.398-35.902,266.997c-1.019,36.599,4.351,153.466,4.351,153.466l56.125,1.285
					c0,0,47.133-283.177,59.341-312.07c12.206-28.895,72.746-234.887,74.784-258.001
					C2484.395,1071.509,2382.497,934.935,2382.497,934.935z"/>
			</g>
		</g>
		<g>
			<g>
				<path style="fill:#292C47;" d="M2597.848,943.74c0,0,30.828,161.025,34.896,196.986c4.071,35.957,6.786,174.013,8.82,196.488
					c2.034,22.475,19.007,293.416,24.414,327.482h-71.748c0,0-55.076-197.456-55.076-290.882c0-93.423-42.552-203.101-70.02-264.741
					c-27.467-61.642-90.34-63.099-107.223-177.465C2361.911,931.607,2574.987,907.467,2597.848,943.74z"/>
			</g>
		</g>
		<g>
			<g>
				<path style="fill:#EEA886;" d="M2450.762,388.494c0,0,54.908-20.509,80.226,21.289c25.318,41.796,22.878,125.474-4.8,135.763
					c-27.677,10.291-69.252,4.911-83.421-21.244c-14.172-26.153-26.966-63.965-26.349-89.233
					C2417.034,409.802,2436.345,395.788,2450.762,388.494z"/>
			</g>
		</g>
		<g>
			<g>
				<path style="fill:#EEA886;" d="M2520.228,547.459c0,0-2.282,14.825,1.494,22.128c3.777,7.305-71.137,7.493-71.137,7.493
					s-6.084-39.722-17.614-73.284C2421.444,470.234,2520.228,547.459,2520.228,547.459z"/>
			</g>
		</g>
		<g>
			<g>
				<path style="fill:#D88A51;" d="M2432.971,503.796c0,0,5.172,8.532,26.276,5.222c21.105-3.31,46.855-31.39,55.667-34.472
					c8.813-3.083,8.897-8.259,8.897-8.259l5.515,8.058l9.36,0.591c0,0-8.538-25.116,4.342-35.361
					c12.879-10.244-13.368-81.301-81.054-57.645c0,0-51.988,14.329-50.096,43.896
					C2413.767,455.393,2421.342,489.074,2432.971,503.796z"/>
			</g>
		</g>
		<g>
			<g>
				<path style="fill:#E2D2CA;" d="M2526.166,568.71c0,0-0.235-13.954-6.56-15.292c-6.323-1.338-69.813-7.441-77.575-4.389v16.253
					C2442.031,565.282,2456.991,574.488,2526.166,568.71z"/>
			</g>
		</g>
		<g>
			<g>
				<path style="fill:#EEA886;" d="M2522.412,455.533c-1.183-4.958-13.796-19.131-18.622-3.958
					c-4.83,15.174,7.297,35.585,14.058,33.838C2524.608,483.666,2525.413,468.106,2522.412,455.533z"/>
			</g>
		</g>
		<g>
			<g>
				<path style="fill:#323657;" d="M2631.176,589.835c-43.532-5.735-105.01-21.128-105.01-21.128l-84.135-3.428
					c0,0-77.222,16.999-107.631,30.734c-2.886,1.302-2.898,68.889-10.815,86.611l25.216,53.192c0,0,14.562,105.367,17.584,152.228
					c1.388,21.513-30.035,201.725-30.035,201.725s33.671,9.914,91.093,16.243c57.423,6.328,200.899-2.289,201.803-9.069
					c0.907-6.787-27.784-252.545-29.056-265.272c-1.948-19.536,6.735-123.333,6.735-123.333
					c13.256-10.284,129.667-64.318,161.425-92.479c8.499-7.536,44.367-42.469,54.566-54.528
					c36.107-42.697,65.712-79.328,69.313-87.221c4.093-4.496-39.233-28.045-43.164-29.355c-3.438-1.149-52.25,62.098-71.038,82.449
					c-8.375,9.073-43.198,34.403-43.198,34.403S2658.403,591.401,2631.176,589.835z"/>
			</g>
		</g>
		<g>
			<g>
				<path style="fill:#D88A51;" d="M2435.124,393.426c0,0-70.015,5.479-2.153,110.37L2435.124,393.426z"/>
			</g>
		</g>
		<polygon style="fill:#C73C3C;" points="2909.364,392.352 2915.105,383.589 2904.53,384.97 		"/>
	</g>
	<g>
		<path style="fill:#323657;" d="M1975.887,867.781c-6.971,30.587-19.258,62-38.943,93.004c0,0-47.003,10.669-63.519-20.458
			c-6.506-12.253-7.586-49.91-2.753-96.878c7.433-72.327,28.913-166.739,66.272-224.5
			C1936.943,618.949,2006.064,735.581,1975.887,867.781z"/>
		<path style="fill:#323657;" d="M1975.887,867.781c-6.971,30.587-19.258,62-38.943,93.004c0,0-47.003,10.669-63.519-20.458
			c-6.506-12.253-7.586-49.91-2.753-96.878L1975.887,867.781z"/>
		<path style="fill:#163342;" d="M2082.661,519.305c0,0,49.037,103.39,15.282,109.572c-46.348,8.49-65.098-77.143-65.098-77.143
			L2082.661,519.305z"/>
		<path style="fill:#EEA886;" d="M2163.746,1007.581c0,0-2.016,11.956-5.994,24.241c-1.938,5.993-1.107,44.629-0.631,49.609
			c0.398,4.176,3.052,1.561,4.333-1.268c0.733-1.623,2.591-15.088,4.705-22.303c1.771-6.058,3.45-8.375,4.594-6.498
			c1.148,1.876,4.296,26.575,2.554,37.281c-1.737,10.704,1.854,34.997,7.252,31.188c5.399-3.808,16.234-48.608,14.3-65.178
			c-1.93-16.57-8.919-37.112-8.919-37.112L2163.746,1007.581z"/>
		<path style="fill:#EDDAD3;" d="M2156.531,1016.927c-0.473-5.25-24.63-84.225-29.109-107.928
			c-4.484-23.703-8.2-45.376-10.729-54.842c-0.166-0.623-0.428-1.708-0.771-3.163c-1.648-6.998-5.174-22.607-8.989-37.245
			c-0.27-1.024-0.539-2.043-0.809-3.058l0.056-5.419c-2.701-10.148,1.698-15.322,2.649-23.053c0.284-2.321,0.259-4.875-0.368-7.861
			c-0.019-0.109-0.041-0.217-0.066-0.323c-2.989-13.547-5.057-25.315-4.99-31.788c0.218-21.5-19.178-124.998-19.178-124.998
			s37.501,12.758,49.063,33.861c11.314,20.657,13.329,70.068,13.75,80.562c0.417,10.494,6.883,98.208,8.273,116.054
			c1.396,17.842,3.595,33.078,7.145,45.177c3.551,12.099,27.534,117.279,27.671,126.776
			C2190.157,1021.512,2157,1022.176,2156.531,1016.927z"/>
		<path style="fill:#EEA886;" d="M1944.443,942.555c0,0-32.069,41.695-40.767,91.163c-8.698,49.465,5.137,215.489,4.758,239.941
			c-0.378,24.448-23.121,85.285-18.573,131.341c4.549,46.056,42.49,277.91,42.49,277.91l29.864-5.506
			c0,0-3.558-240.565-0.714-259.896c2.844-19.333,8.549-89.798,9.686-97.758c1.139-7.96,72.19-216.979,72.19-252.643
			C2043.378,1031.442,2021.771,884.371,1944.443,942.555z"/>
		<path style="fill:#EEA886;" d="M2105.541,958.855c0,0,52.688,201.087,58.942,228.946c6.255,27.86,15.315,50.837,15.315,62.666
			c0,27.446-10.196,71.519-10.196,71.519l-83.535,328.497l-31.962,7.148c0,0,20.374-207.628,21.326-245.167
			c0.96-37.622,29.922-91.047,24.234-106.967c-5.687-15.92-91.54-199.571-91.54-199.571S1943.119,900.481,2105.541,958.855z"/>
		<path style="fill:#E8734D;" d="M2179.799,1250.468c0,0-121.866,52.323-303.315,52.323c0,0,7.961-236.392,34.34-295.598
			c26.381-59.208,198.92-32.571,198.92-32.571S2179.799,1200.864,2179.799,1250.468z"/>
		<g>
			<path style="fill:#EDDAD3;" d="M2045.872,601.891c0,0,28.14,13.287,37.907,15.241c9.772,1.954,47.68,51.196,54.322,69.174
				c6.646,17.976,0,44.942-13.677,76.596c-13.68,31.656-0.782,42.208-7.033,73.862c-6.256,31.656-6.248,117.953-5.078,135.539
				c1.174,17.586-171.418,61.531-207.763,29.484c0,0,24.222-84.778,44.041-127.719c3.819-8.276,5.832-45.12,1.535-56.062
				c-4.3-10.944-52.76-92.622-52.76-92.622s-10.016-81.482,11.129-97.905c18.368-14.263,74.886-20.708,83.874-23.834
				C2001.357,600.518,2027.506,599.156,2045.872,601.891z"/>
		</g>
		<g>
			<path style="fill:#EDDAD3;" d="M2124.425,762.898c-13.673,31.654-0.782,42.214-7.033,73.868
				c-6.256,31.654-6.245,117.953-5.078,135.535c1.177,17.584-171.418,61.537-207.763,29.486c0,0,9.458-33.108,21.393-68.428
				c1.477-4.36,2.984-8.765,4.524-13.136c5.925-16.866,12.223-33.36,18.124-46.155c3.82-8.279,5.836-45.12,1.531-56.064
				c-4.296-10.944-52.752-92.618-52.752-92.618s-10.02-81.486,11.121-97.903c7.224-5.604,20.336-10.008,34.143-13.477
				c5.188-1.299,10.482-2.467,15.59-3.511c15.878-3.282,30.016-5.418,34.143-6.849c8.983-3.128,35.134-4.493,53.512-1.751
				c0,0,28.132,13.279,37.896,15.239c9.776,1.948,47.688,51.198,54.326,69.166C2144.751,704.279,2138.102,731.244,2124.425,762.898z
				"/>
		</g>
		<g>
			<path style="fill:#EEA886;" d="M2059.302,569.423c0,0-5.613,51.617-4.439,68.422c0,0-29.239,29.299-62.492-34.2
				c0,0,13.991-26.174,3.461-61.837C1985.299,506.145,2059.302,569.423,2059.302,569.423z"/>
		</g>
		<path style="fill:#EEA987;" d="M1972.92,472.579c0,0-6.45-7.748-8.857,0.054c-2.405,7.803,5.475,30.995,6.343,34.353
			c0,0,3.909,13.016,5.471,11.355C1977.437,516.681,1972.92,472.579,1972.92,472.579z"/>
		<path style="fill:#EEA987;" d="M2085.617,473.542c0,0,6.455-7.748,8.857,0.056c2.405,7.803-5.473,30.995-6.34,34.353
			c0,0-3.912,13.016-5.474,11.354C2081.101,517.644,2085.617,473.542,2085.617,473.542z"/>
		<path style="fill:#EEA987;" d="M2039.392,398.42c0,0,59.216,9.117,50.547,102.391c-8.668,93.273-60.927,85.869-64.422,85.791
			c-3.491-0.077-52.427,1.939-56.661-111.875C1968.855,474.727,1966.881,390.561,2039.392,398.42z"/>
		<path style="fill:#163342;" d="M1980.212,469.151c0,0,65.72,19.544,97.184,13.295c0,0,2.007,11.608,6.528,12.322
			c4.517,0.714,6.826-22.188,6.826-22.188s1.539-75.849-67.075-76.563c-68.616-0.714-54.676,82.156-54.676,82.156l0.934,14.164
			C1969.933,492.336,1979.762,496.216,1980.212,469.151z"/>
		<path style="fill:#A77860;" d="M2002.232,577.699c0,0,20.733,19.646,52.63,1.617c0,0-9.422,15.741-27.302,15.344
			C2009.683,594.261,2002.232,577.699,2002.232,577.699z"/>
		<path style="fill:#EEA886;" d="M1969.906,608.155c0,0,35.389,57.453,75.335,55.036c55.292-3.347,26.176-50.161,26.176-50.161
			s-13.762-7.892-17.637-8.637c-3.871-0.746-61.053-1.469-61.053-1.469L1969.906,608.155z"/>
		<path style="fill:#323657;" d="M2046.813,842.678c-5.473,32.711-19.994,57.099-43.192,72.481
			c-22.274,14.776-48.324,18.442-68.704,18.442c-3.139,0-6.144-0.089-8.974-0.242c1.477-4.36,2.984-8.765,4.524-13.136
			c19.06,0.53,44.812-2.103,65.919-16.119c19.974-13.278,32.559-34.682,37.392-63.604c10.315-61.747-1.016-117.965-33.648-167.093
			c-24.465-36.816-57.21-59.211-57.496-59.4c0,0,5.076-2.642,15.579-3.522c0,0,0.011,0,0.011,0.011
			c1.311,0.869,26.69,16.35,52.574,55.106C2034.734,701.439,2060.412,761.247,2046.813,842.678z"/>
		<g>
			<g>
				<g>
					<g>
						<g>
							<path style="fill:#EEA886;" d="M2055.939,883.246c0,0-5.056,1.627-7.613,1.26c0,0-4.602-1.026-7.919-1.558
								c-1.052-0.164-1.975-0.284-2.576-0.299c-2.521-0.068-8.07,0.541-14.075-1.319c-6-1.852-29.826-16.518-29.826-16.518
								l4.268-15.127l1.978-14.736c0,0,37.354-9.227,43.147-8.146c0.565,0.111,1.118,0.238,1.631,0.399
								c4.816,1.391,7.813,4.45,10.256,5.467c0.896,0.38,9.543,4.749,10.182,7.574c0.896,3.918-0.074,6.995-1.981,8.981
								c0,0,1.413,7.75-1.155,12.385c0,0,1.531,7.106-3.311,11.964C2058.943,873.573,2059.692,880.956,2055.939,883.246z"/>
						</g>
					</g>
				</g>
			</g>
		</g>
		<g>
			<path style="fill:#EDDAD3;" d="M1948.211,618.946c0,0-36.87-6.372-57.006,26.432c-23.045,37.54-22.661,54.813-26.215,73.755
				c-3.357,17.889-14.37,46.69-15.767,51.714c-1.396,5.024-28.145,56.213-17.066,77.898
				c11.138,21.797,163.858,24.258,165.101,28.848c0.791,2.922,8.037-45.639,8.037-45.639s-51.473-7.707-67.438-9.083
				c-19.068-1.644-36.609-12.583-34.112-21.908c5.503-20.546,18.269-49.296,23.393-59.044
				C1932.264,732.169,1977.52,632.952,1948.211,618.946z"/>
		</g>
		<path style="fill:#EDDAD3;" d="M2062.991,1654.613c0,0,11.485-10.215,17.216-11.422c5.735-1.206,11.167-0.905,13.581,1.811
			c2.417,2.716,9.377,13.58,13.137,16.899c3.765,3.319,30.623,29.273,36.959,31.084c6.337,1.811,33.8,0.301,32.291,16.295
			c-1.51,15.995-23.84,22.936-63.677,19.316c-39.834-3.623-35.003-12.978-57.337-17.807c-22.331-4.828-23.84-15.993-19.917-29.574
			c3.923-13.578,19.739-27.091,18.104-30.711C2051.718,1646.886,2062.991,1654.613,2062.991,1654.613z"/>
		<path style="fill:#EDDAD3;" d="M1938.432,1680.459c0,0,12.721-5.772,21.193-5.47c8.474,0.303,7.565,5.495,9.686,8.65
			c2.119,3.153,22.093,33.418,27.539,38.864c5.447,5.447,24.818,11.197,22.095,24.816c-2.724,13.619-27.239,19.066-57.503,15.132
			c-30.265-3.934-45.093-32.08-49.937-38.435c-4.842-6.356,11.501-47.212,16.344-50.087S1938.432,1680.459,1938.432,1680.459z"/>
		<path style="fill:#C9B9B3;" d="M2138.322,722.166c0,0-8.063,28.862-14.669,43.175c-6.605,14.315-5.476,31.931-4.952,42.666
			c0.521,10.735,0.243,23.358-3.182,41.269c0,0,1.155,5.451,3.488,15.097C2119.008,864.373,2132.99,826.068,2138.322,722.166z"/>
	</g>
	<g>
		<path style="fill:#C44747;" d="M638.495,1082.668h-157.48c-0.971,0-1.757-0.786-1.757-1.757v-32.735
			c0-0.971,0.787-1.758,1.757-1.758h157.48V1082.668z"/>
		<path style="fill:#5084C7;" d="M659.168,1118.92H501.69c-0.971,0-1.757-0.786-1.757-1.757v-32.737
			c0-0.971,0.787-1.758,1.757-1.758h157.478V1118.92z"/>
		<path style="fill:#E55353;" d="M707.422,1082.668h-157.48c-0.97,0-1.757-0.786-1.757-1.757v-32.735
			c0-0.971,0.787-1.758,1.757-1.758h157.48V1082.668z"/>
		<path style="fill:#5084C7;" d="M728.097,1118.92H570.619c-0.971,0-1.757-0.786-1.757-1.757v-32.737
			c0-0.971,0.787-1.758,1.757-1.758h157.478V1118.92z"/>
		<path style="fill:#FAE6DE;" d="M707.422,1078.938H554.298c-0.971,0-1.757-0.787-1.757-1.758v-25.272
			c0-0.971,0.787-1.758,1.757-1.758h153.124V1078.938z"/>
		<path style="fill:#FAE6DE;" d="M728.097,1114.655H574.974c-0.97,0-1.757-0.786-1.757-1.757v-24.209
			c0-0.97,0.787-1.757,1.757-1.757h153.123V1114.655z"/>
		<polygon style="fill:#EEA886;" points="93.397,1652.521 103.008,1620.649 146.164,1626.851 140.23,1655.537 		"/>
		<polygon style="fill:#EEA886;" points="377.254,1654.923 379.975,1672.289 426.95,1663.606 423.983,1637.642 		"/>
		<g>
			<path style="fill:#303669;" d="M266.598,1097.894c0,0-7.289,62.261-15.296,126.07c-1.818,14.517-3.681,29.121-5.492,43.081
				c-5.973,45.857-11.51,84.865-13.87,91.701c-6.367,18.42-76.505,273.065-76.505,273.065s-59.721,6.159-62.037-1.38
				c0,0,47.028-286.55,46.166-296.992c-0.868-10.441,9.381-304.951,9.381-304.951S263.103,1080.965,266.598,1097.894z"/>
		</g>
		<g>
			<path style="fill:#303669;" d="M329.705,1008.484c0,0,61.544,288.026,66.766,310.069c5.22,22.045,37.89,325.317,37.89,325.317
				s-19.148,13.422-65.032,11.094c0,0-69.78-318.293-75.353-328.857c-21.626-41-96.529-244.317-106.972-272.742
				c-10.441-28.427-39.319-57.148-39.319-57.148S223.134,952.058,329.705,1008.484z"/>
		</g>
		<g>
			<path style="fill:#EEA886;" d="M489.396,698.563c0,0,43.422-23.654,47.492-22.68c4.069,0.975,5.071,3.529,1.095,5.919
				c-3.978,2.389-41.366,24.133-41.366,24.133s55.585-18.901,59.102-18.885c2.058,0.011,4.277,4.825,2.254,6.312
				c-2.023,1.487-56.192,23.555-56.192,23.555s51.926-17.549,54.841-16.599c2.55,0.832,3.536,5.823-0.238,7.405
				c-3.774,1.582-51.174,20.753-51.174,20.753s38.485-10.256,40.47-7.89c1.215,1.448,3.316,5.508-6.685,7.826
				c-10.002,2.317-33.117,10.413-33.117,10.413L489.396,698.563z"/>
		</g>
		<g>
			<g>
				<path style="fill:#EEA886;" d="M443.295,733.967c0,0,13.847-8.74,13.158-18.38c-0.587-8.198,4.216-19.395,5.689-22.845
					c1.97-4.615,3.128-21.048,8.545-18.602c5.419,2.444-0.687,27.156-1.002,32.585c-0.317,5.428,18.037-9.443,23.332-9.397
					c5.293,0.045,25.891,33.257,12.224,41.935c-13.667,8.681-33.408,8.473-35.542,10.501c-2.131,2.027-9.719,6.729-9.719,6.729
					L443.295,733.967z"/>
			</g>
		</g>
		<g>
			<path style="fill:#EEA886;" d="M299.421,697.751c0,0,31.626,81.905,38.101,81.58c6.474-0.325,114.679-53.211,114.679-53.211
				s17.046,24.333,11.719,27.85c-7.426,4.903-144.844,108.849-155.497,103.702c-10.654-5.147-15.468-68.891-15.468-68.891
				S266.403,701.321,299.421,697.751z"/>
		</g>
		<g>
			<path style="fill:#EEA886;" d="M308.827,570.618c0,0-0.229,3.049-0.497,7.768c-0.201,3.476-0.426,7.849-0.603,12.584
				c-0.476,12.829-0.584,28.262,1.125,35.276c3.198,13.112-56.203-40.213-56.203-40.213s2.947-43.503-1.528-92.052
				C246.641,445.431,308.827,570.618,308.827,570.618z"/>
		</g>
		<g>
			<path style="fill:#EDDAD3;" d="M338.274,836.225c-1.412,5.474-2.849,11.163-4.284,17.136c-0.661,2.738-1.269,5.588-1.829,8.525
				c-8.098,42.171-0.933,110.323,5.806,178.822c0,0-39.933,20.807-197.713,46.225c-6.265-204.651,39.75-414.184,39.75-414.184
				c11.709-44.428,36.055-60.462,72.736-88.214c0,0,3.933-0.465,53.813,35.219c3.489,2.497,21.021,34.956,31.125,70.873
				C355.542,754.169,350.952,787.058,338.274,836.225z"/>
		</g>
		<g>
			<path style="fill:#A77860;" d="M308.329,578.386c-0.201,3.476-0.507,10.209-0.686,14.944
				c-19.439-13.52-28.575-26.188-33.324-31.569C283.244,570.63,308.329,578.386,308.329,578.386z"/>
		</g>
		<path style="fill:#EEA886;" d="M290.096,665.075c0,0-14.361-49.165-66.247-27.174c-28.557,12.102-29.076,48.3,16.343,173.15
			c0,0,31.599,85.118,39.439,94.554c28.482,34.273,148.822,154.123,163.665,151.691l28.684-11.971c0,0-59.354-72.964-81.088-101.427
			c-21.855-28.618-59.512-90.043-59.512-90.043L290.096,665.075z"/>
		<path style="fill:#1E234D;" d="M251.301,1223.964c-1.818,14.517-3.681,29.121-5.492,43.081c0-0.008-0.007-0.008-0.007-0.015
			c-22.159-56.04-44.433-174.162-44.879-176.276C204.018,1099.117,251.301,1223.964,251.301,1223.964z"/>
		<path style="fill:#EEA886;" d="M252.742,584.535c0,0,74.629,81.811,93.194,141.584c0,0-5.172-49.587-38.013-106.177
			C307.923,619.942,284.843,584.995,252.742,584.535z"/>
		<g>
			<path style="fill:#EEA886;" d="M345.846,448.139c0,0,20.462,34.714,20.529,41.985c0.07,7.271-8.724,7.287-4.119,14.899
				c4.604,7.612,13.958,21.87,9.452,26.481c-4.506,4.613-15.255,2.358-17.489,12.258c-2.232,9.9-14.73,40.058-28.48,39.999
				c-13.75-0.058-61.051-23.9-64.199-33.607c-3.148-9.708-21.11-63.851-26.828-74.27c-5.717-10.419,93.845-60.67,102.489-44.208
				C345.846,448.139,345.846,448.139,345.846,448.139z"/>
		</g>
		<g>
			<path style="fill:#E8734D;" d="M344.004,444.633c0,0,14.797-7.195,9.515-21.839c-5.281-14.644-17.879-34.085-46.782-24.756
				c-28.902,9.329-50.753,29.107-70.726,32.335c-19.971,3.227-24.604,22.686-7.049,58.948
				c17.559,36.265,25.098,54.126,25.098,54.126s5.542-31.287,13.124-30.077c7.583,1.211,19.783-19.411,19.783-19.411l2.015,5.325
				l13.486-0.896c0,0-17.589-38.001-8.276-42.808C303.506,450.773,342.546,448.856,344.004,444.633z"/>
		</g>
		<g>
			<path style="fill:#E8734D;" d="M302.468,498.388c0,0,8.941,32.51,16.34,32.866c7.4,0.354,32.662,4.497,37.375,8.214
				c0,0,3.701,2.826,2.141,7.544c-1.559,4.719-6.015,32.841,2.92,42.173c0,0-6.36,10.036-38.245-1.127
				c-31.883-11.161-48.68-26.297-48.68-26.297s22.866-43.513,14.663-62.477L302.468,498.388z"/>
		</g>
		<g>
			<path style="fill:#EEA886;" d="M286.943,488.413c0,0-9.288-17.547-26.15-5.361c-12.263,8.862,4.043,38.467,16.745,37.875
				C290.237,520.334,293.837,503.79,286.943,488.413z"/>
		</g>
		<path style="fill:#EDDAD3;" d="M212.583,751.05l101.021-18.154c0,0-5.9-115.012-65.476-110.182
			C188.554,627.543,196.596,682.741,212.583,751.05z"/>
		<g>
			<g>
				<path style="fill:#EEA886;" d="M467.332,1040.708c0,0,10.907,4.813,15.985,4.558c5.081-0.254,36.323-3.36,40.387,2.008
					c4.064,5.367,34.035,35.63,29.971,40.207c-4.064,4.577-7.112,2.289-9.145,0c-2.031-2.289-25.144-21.75-27.939-22.064
					c0,0,20.574,23.082,17.018,29.949c-3.556,6.864-9.905,5.594-13.717,6.864c-3.81,1.273-10.159,6.104-17.016,3.053
					c-6.859-3.053-33.02-31.534-39.371-35.604c-6.349-4.068-36.318-19.65-36.572-21.178
					C426.68,1046.975,467.332,1040.708,467.332,1040.708z"/>
			</g>
		</g>
		<rect x="503.702" y="1158.139" style="fill:#A1958C;" width="23.804" height="588.391"/>
		
			<rect x="493.219" y="1118.809" transform="matrix(-1 -1.224647e-16 1.224647e-16 -1 1428.4976 2276.948)" style="fill:#D9C9BD;" width="442.059" height="39.329"/>
		
			<rect x="880.789" y="1158.139" transform="matrix(-1 -1.224647e-16 1.224647e-16 -1 1785.3832 2904.668)" style="fill:#A1958C;" width="23.804" height="588.391"/>
		<path style="fill:#565E96;" d="M379.975,1672.289c0,0,35.438-7.511,36.664-8.615c1.226-1.105,8.611-15.282,14.151-12.927
			c5.539,2.353,5.913,19.448,11.338,22.245c5.428,2.799,48.376,30.726,53.684,35.854c5.306,5.127,37.399,1.487,41.245,10.493
			c3.847,9.007,4.534,30.433-43.508,26.236c-48.043-4.196-102.662,4.572-113.086-0.914
			C370.04,1739.177,376.921,1686.15,379.975,1672.289z"/>
		<path style="fill:#565E96;" d="M93.397,1652.521c0,0,36.184-1.742,37.569-2.638c1.387-0.894,10.946-13.705,16.038-10.495
			c5.091,3.21,2.724,20.143,7.634,23.774c4.909,3.629,42.835,38.072,47.252,43.98c4.418,5.913,36.679,7.455,39.034,16.961
			c2.357,9.506-0.392,30.766-47.145,18.935c-46.753-11.831-102.071-11.915-111.483-18.998
			C72.886,1716.957,88.162,1665.716,93.397,1652.521z"/>
	</g>
</g>
</svg>
